<svg width="200" height="200" viewBox="0 0 200 200" fill="none" xmlns="http://www.w3.org/2000/svg">
  <!-- Background circle with gradient -->
  <defs>
    <linearGradient id="bgGradient" x1="0%" y1="0%" x2="100%" y2="100%">
      <stop offset="0%" style="stop-color:#667eea;stop-opacity:1" />
      <stop offset="50%" style="stop-color:#4facfe;stop-opacity:1" />
      <stop offset="100%" style="stop-color:#00f2fe;stop-opacity:1" />
    </linearGradient>

    <linearGradient id="accentGradient" x1="0%" y1="0%" x2="100%" y2="100%">
      <stop offset="0%" style="stop-color:#f093fb;stop-opacity:1" />
      <stop offset="100%" style="stop-color:#f5576c;stop-opacity:1" />
    </linearGradient>
  </defs>

  <!-- Main background circle -->
  <circle cx="100" cy="100" r="95" fill="url(#bgGradient)" />

  <!-- Marketing wave pattern (represents data/analytics) -->
  <path d="M 40 100 Q 60 70, 80 100 T 120 100 T 160 100"
        stroke="white"
        stroke-width="8"
        fill="none"
        stroke-linecap="round"
        opacity="0.4"/>

  <path d="M 40 120 Q 60 90, 80 120 T 120 120 T 160 120"
        stroke="white"
        stroke-width="8"
        fill="none"
        stroke-linecap="round"
        opacity="0.3"/>

  <!-- Stylized "M" for Marketing -->
  <path d="M 60 80 L 60 130 M 60 80 L 85 110 L 110 80 L 110 130"
        stroke="white"
        stroke-width="12"
        fill="none"
        stroke-linecap="round"
        stroke-linejoin="round"/>

  <!-- AI circuit dots (representing AI) -->
  <circle cx="130" cy="60" r="6" fill="url(#accentGradient)" opacity="0.8"/>
  <circle cx="145" cy="75" r="4" fill="url(#accentGradient)" opacity="0.6"/>
  <circle cx="135" cy="90" r="5" fill="url(#accentGradient)" opacity="0.7"/>

  <!-- Connecting lines for AI circuit -->
  <line x1="130" y1="60" x2="145" y2="75" stroke="white" stroke-width="2" opacity="0.4"/>
  <line x1="145" y1="75" x2="135" y2="90" stroke="white" stroke-width="2" opacity="0.4"/>

  <!-- Target/bullseye element (marketing target) -->
  <circle cx="140" cy="130" r="15" stroke="white" stroke-width="3" fill="none" opacity="0.3"/>
  <circle cx="140" cy="130" r="8" fill="white" opacity="0.5"/>
</svg>
